<svg height="458pt" viewBox="0 -1 458.21999 458" width="458pt" xmlns="http://www.w3.org/2000/svg"><path d="m385.300781 134.109375v78.800781h-32c-4.101562-.398437-8.402343-.601562-12.601562-.601562-4.300781 0-8.5.203125-12.597657.601562h-36.300781v-78.800781zm0 0" fill="#e0e0e2"/><path d="m291.699219 134.109375h-291.699219v-78.5c-.0078125-4.695313 1.855469-9.203125 5.175781-12.523437 3.320313-3.320313 7.828125-5.183594 12.523438-5.175782h33.402343v43.5h61.597657v-43.5h159.699219v43.5h61.703124v-43.5h33.398438c4.695312-.007812 9.203125 1.855469 12.523438 5.175782 3.324218 3.320312 5.183593 7.828124 5.175781 12.523437v78.402344h-93.5zm0 0" fill="#00acea"/><path d="m334.101562 37.910156v43.601563h-61.601562v-81.402344h61.601562zm0 0" fill="#00efd1"/><path d="m291.699219 221.910156c-31.449219 13.058594-56.367188 38.15625-69.199219 69.699219h-29.800781v-78.800781h99.101562v9.101562zm0 0" fill="#e0e0e2"/><path d="m192.699219 134.109375h99.101562v78.800781h-99.101562zm0 0" fill="#d4e1f4"/><path d="m222.5 291.609375c-11.105469 27.382813-12.414062 57.765625-3.699219 86h-26.101562v-85.898437h29.800781zm0 0" fill="#d4e1f4"/><path d="m93.5 291.609375h99.101562v85.902344h-99.101562zm0 0" fill="#e0e0e2"/><path d="m93.5 212.808594h99.101562v78.800781h-99.101562zm0 0" fill="#d4e1f4"/><path d="m93.5 134.109375h99.101562v78.800781h-99.101562zm0 0" fill="#e0e0e2"/><path d="m112.800781 37.910156v43.601563h-61.601562v-81.402344h61.601562zm0 0" fill="#00efd1"/><path d="m93.5 291.609375v85.902344h-75.800781c-4.695313.007812-9.203125-1.855469-12.523438-5.175781-3.320312-3.320313-5.1835935-7.828126-5.175781-12.527344v-68.199219zm0 0" fill="#d4e1f4"/><path d="m0 212.808594h93.5v78.800781h-93.5zm0 0" fill="#e0e0e2"/><path d="m0 134.109375h93.5v78.800781h-93.5zm0 0" fill="#d4e1f4"/><path d="m375.300781 210.210938c60.511719 22.605468 94.570313 86.875 79.304688 149.640624-15.265625 62.765626-75.039063 104.210938-139.171875 96.5-64.136719-7.710937-112.382813-62.144531-112.332032-126.742187-.042968-16.492187 3.148438-32.835937 9.398438-48.097656 12.894531-31.503907 37.789062-56.582031 69.199219-69.703125 11.597656-4.769532 23.824219-7.835938 36.300781-9.097656h25.199219c10.964843 1.195312 21.742187 3.710937 32.101562 7.5zm0 0" fill="#00efd1"/><path d="m383.398438 261.609375c13.976562 13.894531 21.824218 32.792969 21.800781 52.5-.042969 19.929687-7.992188 39.023437-22.097657 53.101563l-52.601562 52.5-52.601562-52.601563c-5.0625-5.128906-9.375-10.953125-12.796876-17.300781-15.203124-28.398438-11.101562-64.398438 12.796876-88.199219 29.160156-29.066406 76.339843-29.066406 105.5 0zm-12.597657 50.5c0-22.257813-18.042969-40.300781-40.300781-40.300781s-40.300781 18.042968-40.300781 40.300781 18.042969 40.300781 40.300781 40.300781c10.691406.015625 20.953125-4.226562 28.511719-11.789062 7.5625-7.558594 11.804687-17.820313 11.789062-28.511719zm0 0" fill="#fedb41"/><path d="m330.5 271.808594c22.257812 0 40.300781 18.042968 40.300781 40.300781s-18.042969 40.300781-40.300781 40.300781-40.300781-18.042968-40.300781-40.300781c-.015625-10.691406 4.226562-20.949219 11.789062-28.511719 7.558594-7.5625 17.820313-11.800781 28.511719-11.789062zm0 0" fill="#f4b844"/></svg>