<?xml version="1.0" encoding="iso-8859-1"?>
<!-- Generator: Adobe Illustrator 19.0.0, SVG Export Plug-In . SVG Version: 6.00 Build 0)  -->
<svg version="1.1" id="Layer_1" xmlns="http://www.w3.org/2000/svg" xmlns:xlink="http://www.w3.org/1999/xlink" x="0px" y="0px"
	 viewBox="0 0 514.133 514.133" style="enable-background:new 0 0 514.133 514.133;" xml:space="preserve">
<path style="fill:#8AD7F8;" d="M395.52,514.133H32.853c-18.133,0-32-13.867-32-32V76.8c0-18.133,13.867-32,32-32H395.52
	c18.133,0,32,13.867,32,32v405.333C427.52,500.267,413.653,514.133,395.52,514.133z"/>
<rect x="40.32" y="84.267" style="fill:#FFFFFF;" width="348.8" height="390.4"/>
<path style="fill:#415A6B;" d="M250.453,35.2C249.387,16,233.387,0,214.187,0C193.92,0,177.92,16,177.92,35.2
	c-36.267,9.6-62.933,33.067-70.4,61.867h213.333C313.387,68.267,286.72,44.8,250.453,35.2z M214.187,44.8
	c-6.4,0-10.667-5.333-10.667-10.667s4.267-10.667,10.667-10.667c5.333,0,10.667,4.267,10.667,10.667S219.52,44.8,214.187,44.8z"/>
<g>
	<rect x="197.12" y="208" style="fill:#E8EAE9;" width="157.867" height="24.533"/>
	<rect x="197.12" y="138.667" style="fill:#E8EAE9;" width="157.867" height="24.533"/>
</g>
<path style="fill:#CED6E0;" d="M153.387,226.133H75.52v-77.867h77.867V226.133z M89.387,211.2h49.067v-49.067H89.387V211.2z"/>
<path style="fill:#F3705A;" d="M178.987,149.333c-4.267-4.267-11.733-4.267-16,0l-43.733,43.733l-18.133-18.133
	c-4.267-4.267-11.733-4.267-16,0c-4.267,4.267-4.267,11.733,0,16l25.6,25.6c4.267,4.267,11.733,4.267,16,0l51.2-51.2
	C183.253,160,183.253,153.6,178.987,149.333z"/>
<path style="fill:#CED6E0;" d="M153.387,362.667H75.52V284.8h77.867V362.667z M89.387,347.733h49.067v-48H89.387V347.733z"/>
<path style="fill:#F3705A;" d="M178.987,285.867c-4.267-4.267-11.733-4.267-16,0L119.253,329.6l-18.133-18.133
	c-4.267-4.267-11.733-4.267-16,0c-4.267,4.267-4.267,11.733,0,16l25.6,25.6c4.267,4.267,11.733,4.267,16,0l51.2-51.2
	C183.253,297.6,183.253,290.133,178.987,285.867z"/>
<g>
	<rect x="197.12" y="344.533" style="fill:#E8EAE9;" width="157.867" height="24.533"/>
	<rect x="197.12" y="276.267" style="fill:#E8EAE9;" width="157.867" height="24.533"/>
</g>
<path style="fill:#F3705A;" d="M442.453,422.4l14.933-20.267L311.253,294.4c-1.067,9.6-6.4,16-14.933,20.267L442.453,422.4z"/>
<path style="fill:#F05540;" d="M427.52,442.667l14.933-20.267L296.32,314.667c-1.067,9.6-6.4,16-14.933,20.267L427.52,442.667z"/>
<path style="fill:#F3705A;" d="M412.587,462.933l14.933-20.267L281.387,334.933c-1.067,9.6-6.4,16-14.933,20.267L412.587,462.933z"
	/>
<path style="fill:#415A6B;" d="M412.587,462.933L462.72,499.2c6.4,4.267,13.867,3.2,19.2-3.2l28.8-39.467
	c4.267-6.4,3.2-13.867-3.2-19.2l-50.133-36.267L412.587,462.933z"/>
<polygon style="fill:#E8EAE9;" points="473.387,412.8 457.387,401.067 412.587,462.933 427.52,473.6 "/>
<path style="fill:#FFD15C;" d="M234.453,284.8l76.8,9.6c-1.067,9.6-6.4,16-14.933,20.267c-1.067,9.6-6.4,16-14.933,20.267
	c-1.067,9.6-6.4,16-14.933,20.267L234.453,284.8z"/>
<path style="fill:#415A6B;" d="M245.12,308.267L234.453,284.8l25.6,3.2C258.987,297.6,253.653,305.067,245.12,308.267z"/>
<g>
</g>
<g>
</g>
<g>
</g>
<g>
</g>
<g>
</g>
<g>
</g>
<g>
</g>
<g>
</g>
<g>
</g>
<g>
</g>
<g>
</g>
<g>
</g>
<g>
</g>
<g>
</g>
<g>
</g>
</svg>
