<svg height="480pt" viewBox="-8 0 480 480.00012" width="480pt" xmlns="http://www.w3.org/2000/svg"><g fill="#9bc9ff"><path d="m56.011719 176v232l176 64v-232zm0 0"/><path d="m408.011719 176v232l-176 64v-232zm0 0"/><path d="m8.011719 216 176 64 48-40-176-64zm0 0"/><path d="m280.011719 280 176-64-48-40-176 64zm0 0"/><path d="m280.011719 72-48 40 176 64 48-40zm0 0"/><path d="m184.011719 72-176 64 48 40 176-64zm0 0"/></g><path d="m420.507812 176 40.621094-33.847656c2.199219-1.835938 3.25-4.707032 2.753906-7.527344-.492187-2.820312-2.460937-5.160156-5.152343-6.136719l-176-64c-2.675781-.976562-5.664063-.460937-7.855469 1.359375l-34.863281 29.074219v-22.921875h-16v22.921875l-34.882813-29.074219c-2.1875-1.820312-5.179687-2.335937-7.855468-1.359375l-176 64c-2.691407.976563-4.65625 3.316407-5.152344 6.136719s.554687 5.691406 2.753906 7.527344l40.640625 33.847656-40.625 33.847656c-2.199219 1.835938-3.25 4.707032-2.753906 7.527344.496093 2.820312 2.460937 5.160156 5.152343 6.136719l42.722657 15.542969v168.945312c0 3.359375 2.105469 6.363281 5.261719 7.511719l176 64c1.765624.652343 3.707031.652343 5.472656 0l176-64c3.160156-1.148438 5.261718-4.152344 5.265625-7.511719v-168.945312l42.734375-15.542969c2.695312-.976563 4.660156-3.316407 5.15625-6.136719.492187-2.820312-.554688-5.691406-2.753906-7.527344zm-138.898437-94.902344 158.59375 57.671875-33.792969 28.132813-158.582031-57.671875zm-57.597656 99.589844-20.289063-20.28125-11.3125 11.3125 39.601563 39.59375 39.597656-39.59375-11.3125-11.3125-20.285156 20.28125v-57.273438l144.597656 52.585938-152.597656 55.488281-152.601563-55.488281 144.601563-52.585938zm-41.601563-99.589844 33.777344 28.132813-158.578125 57.671875-33.78125-28.132813zm-124.800781 104 158.59375 57.671875-33.792969 28.132813-158.582031-57.671875zm6.402344 59.773438 117.261719 42.640625c.878906.324219 1.804687.488281 2.738281.488281 1.871093 0 3.679687-.652344 5.117187-1.847656l34.882813-29.074219v203.496094l-160-58.175781zm336 157.527344-160 58.175781v-203.496094l34.878906 29.074219c1.4375 1.195312 3.25 1.847656 5.121094 1.847656.933593 0 1.859375-.164062 2.734375-.488281l117.265625-42.640625zm-118.402344-131.496094-33.773437-28.132813 158.574218-57.671875 33.777344 28.132813zm0 0" fill="#1e81ce"/><path d="m248.011719 432c0 4.417969 3.582031 8 8 8 7.886719 0 75.574219-26.398438 130.976562-48.566406 4.101563-1.644532 6.097657-6.304688 4.453125-10.410156-1.640625-4.105469-6.300781-6.097657-10.40625-4.457032-55.136718 22.066406-117.601562 46.089844-125.488281 47.449219-4.230469.246094-7.535156 3.746094-7.535156 7.984375zm0 0" fill="#1e81ce"/><path d="m224.011719 0h16v16h-16zm0 0" fill="#1e81ce"/><path d="m224.011719 24h16v16h-16zm0 0" fill="#1e81ce"/><path d="m224.011719 48h16v16h-16zm0 0" fill="#1e81ce"/></svg>